<svg width="205" height="677" viewBox="0 0 205 677" fill="none" xmlns="http://www.w3.org/2000/svg">
<mask id="mask0_589_217" style="mask-type:alpha" maskUnits="userSpaceOnUse" x="-30" y="1" width="235" height="675">
<path d="M4.05831 2.68652H170.942C188.341 2.68652 202.446 17.5209 202.446 35.8201V641.18C202.446 659.479 188.341 674.313 170.942 674.313H4.05831C-13.3407 674.313 -27.4453 659.479 -27.4453 641.18V35.8201C-27.4453 17.5209 -13.3407 2.68652 4.05831 2.68652Z" fill="#0A090F" stroke="url(#paint0_linear_589_217)" stroke-width="3.19048"/>
</mask>
<g mask="url(#mask0_589_217)">
<path d="M59.8356 412.155C64.8011 413.948 66.8802 416.145 67.1426 417.533C67.3848 418.771 66.4158 421.416 62.8835 424.853C59.3915 427.137 55.7179 429.399 51.9837 431.682C42.6261 437.222 33.5877 443.343 24.9158 450.015C-43.7125 505.332 -80.0854 579.386 -83.0929 670.108C-83.6378 686.562 -88.5226 691.598 -104.025 691.641H-108.061C-126.066 691.684 -144.677 691.727 -162.964 691.598C-170.453 691.536 -175.983 689.614 -178.87 686.435C-181.756 683.254 -183.109 678.026 -182.887 670.876C-179.455 564.211 -143.244 473.894 -75.0394 401.783C-65.4987 391.696 -55.3389 381.978 -44.5603 372.631C-38.9085 367.722 -35.8203 367.444 -29.4822 371.243C-1.00517 387.847 28.9025 401.545 59.8356 412.155Z" fill="url(#paint1_linear_589_217)"/>
<path d="M-107.736 245.778L-103.558 251.135C-95.2073 262.285 -86.3211 272.978 -76.9339 283.167C-6.20636 355.002 78.8727 392.841 175.941 395.68C183.43 395.871 188.556 394.463 191.645 391.283L191.766 391.155C194.835 387.91 196.349 382.383 196.389 374.273L196.408 373.697C196.49 352.697 196.531 330.886 196.408 309.674C196.228 296.676 190.555 290.68 178.061 290.273C97.8462 288.054 30.7116 254.378 -21.5468 190.205C-34.0225 174.507 -44.8635 157.435 -53.8828 139.284C-57.4554 132.305 -59.6558 131.132 -62.5422 131.366C-65.4286 131.601 -66.0544 133.074 -68.3353 140.223C-78.8743 173.673 -92.2436 206.051 -108.281 236.964C-110.501 241.189 -110.077 242.747 -107.736 245.778Z" fill="url(#paint2_linear_589_217)"/>
<path d="M196.649 476.307C196.623 469.506 196.617 462.699 196.63 455.882C196.729 453.421 196.344 450.966 195.499 448.67C194.657 446.374 193.371 444.289 191.724 442.545C188.455 439.344 184.013 437.892 177.151 438.021C120.634 438.021 64.2371 463.757 22.5556 507.829C-19.227 552.004 -43.2066 611.505 -43.0855 671.132C-43.1056 685.923 -37.8576 691.471 -23.7686 691.555C-2.47357 691.749 18.4782 691.706 38.5016 691.493C50.8142 691.278 55.9817 686.157 56.7085 672.968C60.8261 597.93 107.776 548.334 179.189 543.468C191.2 542.678 196.428 537.237 196.508 525.157C196.69 509.045 196.77 492.526 196.649 476.307Z" fill="url(#paint3_linear_589_217)"/>
<path d="M-43.1457 16.3151C-41.5511 69.7751 -25.4436 117.11 4.652 156.912C49.0181 215.558 107.615 246.226 178.848 248.083C181.223 248.515 183.663 248.348 185.967 247.596C188.273 246.844 190.376 245.527 192.11 243.754C193.842 241.979 195.155 239.8 195.94 237.387C196.725 234.976 196.961 232.404 196.629 229.877C196.932 205.912 196.932 182.607 196.609 160.54C196.428 148.738 191.16 142.955 180.421 142.869C147.533 142.566 116.082 128.581 92.8751 103.94C69.6683 79.3 56.5736 45.9875 56.4259 11.2144C56.4259 -2.14527 47.686 -5.1543 40.4195 -5.23966C26.9183 -5.50525 13.2338 -5.49977 -0.282486 -5.49429H-0.290661L-0.295597 -5.49424L-0.305988 -5.49418C-4.15999 -5.49261 -8.00037 -5.49109 -11.8189 -5.4958L-27.6034 -5.41042C-29.6869 -5.44357 -31.7547 -5.02743 -33.6809 -4.18713C-35.607 -3.34684 -37.3508 -2.10012 -38.806 -0.523293C-42.197 3.27546 -43.4889 8.14131 -43.1457 16.3151Z" fill="url(#paint4_linear_589_217)"/>
<path d="M185.749 87.5953C169.258 101.147 141.666 97.967 122.955 80.2751C104.768 63.0952 97.8245 42.9063 101.74 18.6199L101.821 18.0651L102.144 17.3394C111.025 -3.61784 125.72 -9.29463 136.458 -10.4044C155.654 -12.3465 177.514 -0.971393 189.645 17.2755C206.903 43.2052 205.349 71.4399 185.749 87.5953Z" fill="url(#paint5_linear_589_217)"/>
<path d="M122.957 605.614C106.587 622.923 99.1991 640.892 100.753 658.968C101.522 668.823 105.628 678.052 112.318 684.96C119.008 691.869 127.831 695.992 137.167 696.572C145.654 696.784 154.096 695.165 161.972 691.812C169.847 688.459 176.995 683.443 182.975 677.072C188.956 670.7 193.645 663.106 196.757 654.754C199.87 646.401 201.337 637.466 201.072 628.493C200.472 618.631 196.498 609.338 189.889 602.349C183.28 595.363 174.49 591.159 165.163 590.527C157.52 589.778 149.816 590.735 142.545 593.334C135.275 595.934 128.601 600.116 122.957 605.614Z" fill="url(#paint6_linear_589_217)"/>
</g>
<defs>
<linearGradient id="paint0_linear_589_217" x1="90.3627" y1="606.187" x2="73.8921" y2="26.9583" gradientUnits="userSpaceOnUse">
<stop stop-color="#D95DB0"/>
<stop offset="1" stop-color="#3344DC"/>
</linearGradient>
<linearGradient id="paint1_linear_589_217" x1="28.3618" y1="627.052" x2="349.457" y2="149.77" gradientUnits="userSpaceOnUse">
<stop stop-color="#D95DB0"/>
<stop offset="1" stop-color="#3344DC"/>
</linearGradient>
<linearGradient id="paint2_linear_589_217" x1="28.3645" y1="627.052" x2="349.46" y2="149.77" gradientUnits="userSpaceOnUse">
<stop stop-color="#D95DB0"/>
<stop offset="1" stop-color="#3344DC"/>
</linearGradient>
<linearGradient id="paint3_linear_589_217" x1="28.3618" y1="627.052" x2="349.457" y2="149.77" gradientUnits="userSpaceOnUse">
<stop stop-color="#D95DB0"/>
<stop offset="1" stop-color="#3344DC"/>
</linearGradient>
<linearGradient id="paint4_linear_589_217" x1="28.3626" y1="627.053" x2="349.458" y2="149.771" gradientUnits="userSpaceOnUse">
<stop stop-color="#D95DB0"/>
<stop offset="1" stop-color="#3344DC"/>
</linearGradient>
<linearGradient id="paint5_linear_589_217" x1="28.3623" y1="627.052" x2="349.458" y2="149.771" gradientUnits="userSpaceOnUse">
<stop stop-color="#D95DB0"/>
<stop offset="1" stop-color="#3344DC"/>
</linearGradient>
<linearGradient id="paint6_linear_589_217" x1="28.364" y1="627.053" x2="349.46" y2="149.771" gradientUnits="userSpaceOnUse">
<stop stop-color="#D95DB0"/>
<stop offset="1" stop-color="#3344DC"/>
</linearGradient>
</defs>
</svg>
